<svg id="logo" xmlns="http://www.w3.org/2000/svg" width="190.847" height="40.038" viewBox="0 0 190.847 40.038">
  <path id="Path_1" data-name="Path 1" d="M20.187,10.585,9.727,33.057h3.654l2.5-5.46H25.5l2.359,5.46h3.713L21.484,10.585Zm.6,6.184,3.335,7.642H17.294Z" transform="translate(-1.65 -1.796)" fill="#001871"/>
  <rect id="Rectangle_3" data-name="Rectangle 3" width="3.393" height="22.472" transform="translate(33.456 8.789)" fill="#001871"/>
  <path id="Path_2" data-name="Path 2" d="M63.21,21.265H72.5v.743a15.2,15.2,0,0,1-.6,4.481,9.531,9.531,0,0,1-1.96,3.38,10.187,10.187,0,0,1-7.961,3.52,10.953,10.953,0,0,1-8.081-3.4,11.31,11.31,0,0,1-3.359-8.211A11.679,11.679,0,0,1,62.279,10.058,11.413,11.413,0,0,1,67.2,11.13a14.158,14.158,0,0,1,4.3,3.483l-2.416,2.314a8.2,8.2,0,0,0-6.741-3.681,8.036,8.036,0,0,0-5.981,2.461,8.217,8.217,0,0,0-2.417,6.051A8.44,8.44,0,0,0,62.09,30.2a6.791,6.791,0,0,0,4.5-1.681,5.994,5.994,0,0,0,2.225-4.065h-5.6Z" transform="translate(-8.574 -1.707)" fill="#001871"/>
  <path id="Path_3" data-name="Path 3" d="M0,40.038H74.022V0H0ZM3.08,3.088H70.945v33.86H3.08Z" fill="#001871"/>
  <path id="Path_4" data-name="Path 4" d="M122.688,12.536l-8.948,19.22h3.125l2.142-4.668h8.227l2.018,4.668h3.175L123.8,12.536Zm.511,5.292,2.854,6.535h-5.839Z" transform="translate(-19.297 -2.127)" fill="#001871"/>
  <rect id="Rectangle_4" data-name="Rectangle 4" width="2.901" height="19.22" transform="translate(116.153 10.408)" fill="#001871"/>
  <path id="Path_5" data-name="Path 5" d="M159.485,21.672h7.941v.634a12.957,12.957,0,0,1-.511,3.829,8.125,8.125,0,0,1-1.681,2.894,8.7,8.7,0,0,1-6.807,3.011,9.351,9.351,0,0,1-6.909-2.914,9.65,9.65,0,0,1-2.879-7.02,10,10,0,0,1,10.049-10.02A9.77,9.77,0,0,1,162.9,13a12.037,12.037,0,0,1,3.673,2.977L164.5,17.963a7.013,7.013,0,0,0-5.765-3.152,6.883,6.883,0,0,0-5.114,2.1,7.037,7.037,0,0,0-2.066,5.178,7.221,7.221,0,0,0,6.972,7.22,5.821,5.821,0,0,0,3.845-1.436,5.146,5.146,0,0,0,1.9-3.48h-4.793Z" transform="translate(-25.219 -2.05)" fill="#001871"/>
  <path id="Path_6" data-name="Path 6" d="M182.435,22.368V20.461c-.564.257-1.2.53-1.852.812V17.93h1.852V15.92h-1.852V12.054h-2.369V15.92h-2.252V17.93h2.252v4.331c-.854.346-1.671.664-2.352.913v2.036c.78-.291,1.57-.6,2.352-.934v4.868a.694.694,0,0,1-.644.679h-1.353v2.005h2.816a1.473,1.473,0,0,0,1.551-1.637V23.239c.639-.288,1.261-.579,1.852-.871" transform="translate(-29.838 -2.045)" fill="#001871"/>
  <path id="Path_7" data-name="Path 7" d="M193.556,31.878v1.953c1.989.6,4.162,1.142,6.348,1.607V33.348c-2.071-.442-4.16-.934-6.348-1.47" transform="translate(-32.839 -5.409)" fill="#001871"/>
  <path id="Path_8" data-name="Path 8" d="M187.916,14.275h6.673V15.81h-6.673Zm-1.65,3.217h9.973a.712.712,0,0,0,.717-.713v-4.2H185.548v4.2a.714.714,0,0,0,.718.713" transform="translate(-31.48 -2.135)" fill="#001871"/>
  <path id="Path_9" data-name="Path 9" d="M194.734,22.6h-7.68V21.315h7.68Zm0,2.733h-7.68V24.142h7.68Zm0,2.777h-7.68V26.875h7.68Zm1.648,1.686a.721.721,0,0,0,.722-.718V19.63H184.688v9.447a.716.716,0,0,0,.716.718h3.678c-2.168.65-4.054,1.147-6.026,1.6v1.969c2.167-.465,4.2-.945,6.343-1.568v-2Z" transform="translate(-31.057 -3.33)" fill="#001871"/>
  <path id="Path_10" data-name="Path 10" d="M214.463,14.313H222.6v3.7h-8.135Zm12.153,14.562a55.681,55.681,0,0,1-6.418-5.345h6.173V21.579h-6.579V19.97h4.544a.713.713,0,0,0,.716-.712v-6.9h-13.04v6.9a.713.713,0,0,0,.716.712h4.554v1.608h-6.237v1.952h5.468a42.8,42.8,0,0,1-5.684,5.422v2.131a44.247,44.247,0,0,0,6.452-5.111v6.154h2.511V25.8a57.212,57.212,0,0,0,6.825,5.371Z" transform="translate(-35.77 -2.097)" fill="#001871"/>
  <path id="Path_11" data-name="Path 11" d="M210.248,12.054h-2.331a21.383,21.383,0,0,1-3.286,8.24v2.685a13.182,13.182,0,0,0,1.979-2.119V32.075h2.329V16.727a21.244,21.244,0,0,0,1.309-4.673" transform="translate(-34.718 -2.045)" fill="#001871"/>
</svg>
