<svg xmlns="http://www.w3.org/2000/svg" viewBox="0 0 24 24" width="24" height="24">
  <path d="M8.46 11.05L8.46 11.05L6.84 11.05Q6.84 11.05 6.84 11.05Q6.84 11.05 6.84 11.05L6.84 11.05Q5.65 11.05 4.62 11.49L4.62 11.49Q3.59 11.94 2.81 12.71Q2.04 13.49 1.59 14.52L1.59 14.52Q1.15 15.55 1.15 16.74L1.15 16.74Q1.15 16.74 1.15 16.74Q1.15 16.74 1.15 16.74L1.15 16.74L1.15 16.74L1.15 20.63L14.11 20.63L14.11 16.74Q14.11 16.72 14.11 16.69Q14.11 16.65 14.11 16.60L14.11 16.60Q14.11 15.45 13.66 14.45L13.66 14.45Q13.22 13.44 12.47 12.68Q11.72 11.92 10.69 11.47L10.69 11.47Q9.68 11.05 8.53 11.05L8.53 11.05Q8.51 11.05 8.50 11.05Q8.48 11.05 8.46 11.05L8.46 11.05L8.46 11.05ZM22.80 19.44L22.80-0.79L10.15-0.79L10.15 3.29Q10.99 3.88 11.50 4.80Q12 5.73 12 6.83L12 6.83Q12 7.84 11.58 8.69Q11.16 9.55 10.45 10.13L10.45 10.13L10.43 10.13Q11.09 10.32 11.64 10.61Q12.19 10.91 12.68 11.28L12.68 11.28L12.66 11.28L12.66 10.44L14.93 10.44L14.93 12.71L14.11 12.71Q14.72 13.56 15.07 14.58Q15.42 15.60 15.42 16.72L15.42 16.72Q15.42 16.72 15.42 16.73Q15.42 16.74 15.42 16.74L15.42 16.74L15.42 16.74L15.42 19.44L22.80 19.44ZM14.88 5.87L14.88 8.17L12.61 8.17L12.61 5.87L14.88 5.87ZM14.88 1.44L14.88 3.71L12.61 3.71L12.61 1.44L14.88 1.44ZM20.27 14.87L20.27 17.17L18 17.17L18 14.87L20.27 14.87ZM20.27 10.37L20.27 12.67L18 12.67L18 10.37L20.27 10.37ZM20.27 5.87L20.27 8.17L18 8.17L18 5.87L20.27 5.87ZM20.27 1.44L20.27 3.71L18 3.71L18 1.44L20.27 1.44ZM10.73 6.78L10.73 6.78Q10.73 8.05 9.84 8.94Q8.95 9.83 7.69 9.83L7.69 9.83Q6.42 9.83 5.52 8.94Q4.62 8.05 4.62 6.78L4.62 6.78Q4.62 5.52 5.52 4.61Q6.42 3.71 7.69 3.71L7.69 3.71L7.69 3.71Q8.95 3.74 9.84 4.63Q10.73 5.52 10.73 6.78L10.73 6.78L10.73 6.78Z"/>
</svg>
