<svg xmlns="http://www.w3.org/2000/svg" viewBox="0 0 24 24" width="24" height="24">
  <path d="M14.58 3.17L14.58-2.10L1.24-2.10L1.24 21.90L6.84 21.90L6.84 17.02L8.98 17.02L8.98 21.90L11.51 21.90L11.51 19.16L10.24 19.16L10.24 17.02L11.51 17.02L11.51 15.90L10.24 15.90L10.24 13.77L11.51 13.77L11.51 12.64L10.24 12.64L10.24 10.51L11.51 10.51L11.51 9.29L10.24 9.29L10.24 7.16L11.51 7.16L11.51 6.03L10.24 6.03L10.24 3.90L11.51 3.90L11.51 3.17L14.58 3.17ZM5.58 17.02L5.58 19.16L3.45 19.16L3.45 17.02L5.58 17.02ZM5.58 13.77L5.58 15.90L3.45 15.90L3.45 13.77L5.58 13.77ZM5.58 10.44L5.58 12.57L3.45 12.57L3.45 10.44L5.58 10.44ZM5.58 7.16L5.58 9.29L3.45 9.29L3.45 7.16L5.58 7.16ZM5.58 3.90L5.58 6.03L3.45 6.03L3.45 3.90L5.58 3.90ZM5.58 0.57L5.58 2.70L3.45 2.70L3.45 0.57L5.58 0.57ZM8.98 13.77L8.98 15.90L6.84 15.90L6.84 13.77L8.98 13.77ZM8.98 10.44L8.98 12.57L6.84 12.57L6.84 10.44L8.98 10.44ZM8.98 7.16L8.98 9.29L6.84 9.29L6.84 7.16L8.98 7.16ZM8.98 3.90L8.98 6.03L6.84 6.03L6.84 3.90L8.98 3.90ZM8.98 0.57L8.98 2.70L6.84 2.70L6.84 0.57L8.98 0.57ZM12.38 0.57L12.38 2.70L10.24 2.70L10.24 0.57L12.38 0.57ZM22.76 4.51L14.58 4.51L12.84 4.51L12.84 21.90L22.76 21.90L22.76 4.51ZM17.23 17.02L17.23 19.16L15.09 19.16L15.09 17.02L17.23 17.02ZM17.23 13.77L17.23 15.90L15.09 15.90L15.09 13.77L17.23 13.77ZM17.23 10.44L17.23 12.57L15.09 12.57L15.09 10.44L17.23 10.44ZM17.23 7.16L17.23 9.29L15.09 9.29L15.09 7.16L17.23 7.16ZM20.63 17.02L20.63 19.16L18.49 19.16L18.49 17.02L20.63 17.02ZM20.63 13.77L20.63 15.90L18.49 15.90L18.49 13.77L20.63 13.77ZM20.63 10.44L20.63 12.57L18.49 12.57L18.49 10.44L20.63 10.44ZM20.63 7.16L20.63 9.29L18.49 9.29L18.49 7.16L20.63 7.16Z"/>
</svg>
