<svg xmlns="http://www.w3.org/2000/svg" viewBox="0 0 24 24" width="24" height="24">
  <path d="M13.15 8.40L10.85 8.40Q10.85 8.40 10.84 8.40Q10.83 8.40 10.83 8.40L10.83 8.40Q9.26 8.40 7.90 8.99L7.90 8.99Q6.52 9.57 5.50 10.60Q4.48 11.63 3.89 12.99L3.89 12.99Q3.30 14.38 3.30 15.92L3.30 15.92Q3.30 15.95 3.30 15.95Q3.30 15.95 3.30 15.97L3.30 15.97L3.30 15.97L3.30 21.24L20.70 21.24L20.70 15.97Q20.70 15.95 20.70 15.95Q20.70 15.95 20.70 15.92L20.70 15.92Q20.70 14.38 20.11 12.99L20.11 12.99Q19.52 11.63 18.50 10.60Q17.48 9.57 16.10 8.99L16.10 8.99Q14.74 8.40 13.17 8.40L13.17 8.40Q13.17 8.40 13.16 8.40Q13.15 8.40 13.15 8.40L13.15 8.40L13.15 8.40ZM16.15 2.70L16.15 2.70Q16.15 4.42 14.93 5.62Q13.71 6.83 12 6.83L12 6.83Q10.29 6.83 9.07 5.62Q7.85 4.42 7.85 2.70L7.85 2.70Q7.85 0.99 9.07-0.23Q10.29-1.44 12-1.44L12-1.44L12-1.44Q13.71-1.44 14.92-0.23Q16.13 0.99 16.15 2.70L16.15 2.70L16.15 2.70Z"/>
</svg>
