<svg xmlns="http://www.w3.org/2000/svg" viewBox="0 0 24 24" width="24" height="24">
  <path d="M19.17 21.83L14.34 21.90L14.34 6.52Q13.36 7.25 12.35 7.60L12.35 7.60Q11.37 7.95 10.38 7.95Q9.40 7.95 8.41 7.60L8.41 7.60Q7.41 7.25 6.42 6.52L6.42 6.52L6.42 21.90L1.59 21.90L1.59 12.31Q1.29 12.27 1.02 12.11Q0.75 11.96 0.56 11.75L0.56 11.75L0.56 11.75Q0.30 11.49 0.15 11.14Q0 10.79 0 10.42L0 10.42Q0 10.39 0 10.38Q0 10.37 0 10.35L0 10.35L0 10.35L0 5.59Q0 5.56 0 5.55Q0 5.54 0 5.52L0 5.52Q0 4.67 0.60 4.08Q1.20 3.48 2.04 3.48L2.04 3.48Q2.04 3.48 2.04 3.48Q2.04 3.48 2.04 3.48L2.04 3.48L2.72 3.48Q2.84 3.48 2.86 3.52Q2.88 3.57 2.93 3.62L2.93 3.62Q2.98 3.67 3.20 4.24Q3.42 4.81 3.61 5.19L3.61 5.19L4.01 5.89L4.76 4.25Q4.83 4.06 4.91 3.90Q4.99 3.74 5.09 3.60L5.09 3.60L5.09 3.62Q5.09 3.57 5.09 3.52Q5.09 3.48 5.13 3.48L5.13 3.48Q5.20 3.48 5.27 3.48Q5.34 3.48 5.41 3.48L5.41 3.48Q5.72 3.48 6.04 3.51Q6.35 3.55 6.63 3.62L6.63 3.62L6.61 3.62Q6.89 3.71 7.14 3.89Q7.38 4.06 7.55 4.30L7.55 4.30L7.55 4.32Q7.85 4.65 8.21 4.91Q8.58 5.17 9 5.33L9 5.33L9.02 5.33Q9.30 5.45 9.64 5.51Q9.98 5.56 10.36 5.56L10.36 5.56Q10.50 5.56 10.65 5.55Q10.80 5.54 10.95 5.52L10.95 5.52L10.92 5.52Q11.44 5.42 11.88 5.21Q12.33 5.00 12.70 4.70L12.70 4.70L12.70 4.70L13.27 4.18Q13.55 3.88 13.92 3.70Q14.30 3.52 14.72 3.48L14.72 3.48L15.49 3.48Q15.59 3.48 15.64 3.54Q15.70 3.60 15.75 3.69L15.75 3.69Q15.80 3.78 16.10 4.52Q16.41 5.26 16.69 5.77L16.69 5.77Q16.99 6.29 16.88 6.07Q16.76 5.85 16.76 5.89L16.76 5.89Q16.76 5.94 17.05 5.28Q17.34 4.63 17.58 4.18L17.58 4.18Q17.84 3.76 17.74 3.89Q17.65 4.02 17.65 3.92L17.65 3.92Q17.65 3.83 17.86 3.63Q18.07 3.43 18.35 3.48L18.35 3.48L19.24 3.48Q19.76 3.64 20.12 4.01Q20.48 4.37 20.63 4.86L20.63 4.86L20.63 4.88Q20.70 5.00 20.73 5.13Q20.77 5.26 20.77 5.40L20.77 5.40Q20.77 5.42 20.77 5.46Q20.77 5.49 20.77 5.52L20.77 5.52L20.77 5.52L20.77 10.23Q20.77 10.23 20.77 10.25Q20.77 10.27 20.77 10.27L20.77 10.27Q20.77 10.98 20.33 11.53Q19.90 12.08 19.24 12.24L19.24 12.24L19.24 12.24L19.17 12.24L19.17 21.83ZM18.80-0.06L18.80-0.06Q18.80 0.78 18.20 1.37Q17.60 1.95 16.76 1.95L16.76 1.95L16.76 1.95Q15.94 1.95 15.35 1.36Q14.77 0.76 14.77-0.06L14.77-0.06Q14.77-0.90 15.36-1.50Q15.96-2.10 16.80-2.10L16.80-2.10Q16.80-2.10 16.82-2.10Q16.83-2.10 16.83-2.10L16.83-2.10L16.83-2.10Q17.65-2.08 18.22-1.49Q18.80-0.90 18.80-0.06L18.80-0.06Q18.80-0.06 18.80-0.06Q18.80-0.06 18.80-0.06L18.80-0.06L18.80-0.06ZM5.98-0.06L5.98-0.06Q5.98-0.06 5.98-0.06Q5.98-0.06 5.98-0.06L5.98-0.06Q5.98 0.76 5.40 1.35Q4.83 1.93 4.01 1.95L4.01 1.95L4.01 1.95Q3.16 1.93 2.57 1.32Q1.97 0.71 1.97-0.13L1.97-0.13Q1.97-0.13 1.97-0.13Q1.97-0.13 1.97-0.13L1.97-0.13L1.97-0.13Q1.97-0.13 1.97-0.13Q1.97-0.13 1.97-0.13L1.97-0.13Q1.97-0.95 2.54-1.53Q3.12-2.10 3.94-2.10L3.94-2.10Q3.96-2.10 3.97-2.10Q3.98-2.10 4.01-2.10L4.01-2.10L4.01-2.10Q4.83-2.08 5.40-1.49Q5.98-0.90 5.98-0.06L5.98-0.06Q5.98-0.06 5.98-0.06Q5.98-0.06 5.98-0.06L5.98-0.06L5.98-0.06Z"/>
</svg>
